<svg xmlns="http://www.w3.org/2000/svg" viewBox="0 0 80 80" width="80px" height="80px">
  <path d="M 70.511719 10.986328 C 69.833089 11.015588 69.157051 11.196735 68.537109 11.4375 L 68.535156 11.4375 C 67.931048 11.673297 64.049934 13.281226 58.392578 15.628906 C 52.735222 17.976586 45.3821 21.032905 38.091797 24.064453 C 23.51119 30.12755 9.1835937 36.091797 9.1835938 36.091797 L 9.2480469 36.068359 C 9.2480469 36.068359 8.4485192 36.330303 7.6484375 36.871094 C 7.2483967 37.141489 6.8283994 37.486951 6.4960938 37.966797 C 6.163788 38.446643 5.9299055 39.103809 6.0195312 39.808594 C 6.1812736 41.080477 7.0482024 41.912426 7.7636719 42.412109 C 8.4791414 42.911793 9.1660156 43.148437 9.1660156 43.148438 L 9.1738281 43.152344 L 23.1875 47.785156 C 23.418097 48.587707 27.163839 61.631062 28.046875 64.384766 C 28.50876 65.826709 28.935922 66.627156 29.335938 67.130859 C 29.535944 67.382711 29.733459 67.561543 29.931641 67.683594 C 30.016841 67.736064 30.101273 67.771554 30.183594 67.802734 C 30.197014 67.807834 30.211349 67.817736 30.224609 67.822266 C 30.252855 67.83191 30.267938 67.831811 30.302734 67.839844 C 31.62302 68.328201 32.738281 67.476563 32.738281 67.476562 L 32.769531 67.453125 L 42.376953 59 L 56.585938 70.394531 L 56.710938 70.449219 C 58.991132 71.431474 60.875783 70.891854 61.970703 70.027344 C 63.065623 69.162833 63.509766 68.03125 63.509766 68.03125 L 63.544922 67.943359 L 73.794922 16.097656 C 74.046117 14.98858 74.071392 14.057617 73.853516 13.257812 C 73.635643 12.458006 73.128863 11.807693 72.5 11.443359 C 71.871137 11.079025 71.190348 10.957066 70.511719 10.986328 z" fill="none" stroke="#FFFFFF" stroke-width="2"/>
</svg>
